<svg width="24" height="24" viewBox="0 0 24 24" fill="none" xmlns="http://www.w3.org/2000/svg">
<path d="M12 24C18.6274 24 24 18.6274 24 12C24 5.37258 18.6274 0 12 0C5.37258 0 0 5.37258 0 12C0 18.6274 5.37258 24 12 24Z" fill="#9D9D9D"/>
<path fill-rule="evenodd" clip-rule="evenodd" d="M17.7258 16.4054L16.4054 17.7258C16.2309 17.9008 15.9877 17.9977 15.7449 17.9977C15.5026 17.9977 15.2594 17.9008 15.0845 17.7258L12.2298 14.8708L9.37477 17.7258C9.19985 17.9008 8.95708 17.9977 8.71477 17.9977C8.47154 17.9977 8.22877 17.9008 8.05431 17.7258L6.73338 16.4054C6.55846 16.2305 6.46154 15.9877 6.46154 15.7449C6.46154 15.5022 6.55846 15.2594 6.73338 15.0849L9.588 12.2298L6.73338 9.37477C6.55846 9.19985 6.46154 8.95708 6.46154 8.71431C6.46154 8.47154 6.55846 8.22877 6.73338 8.05385L8.05431 6.73338C8.22877 6.55846 8.47154 6.46154 8.71477 6.46154C8.95708 6.46154 9.19985 6.55846 9.37477 6.73338L12.2298 9.58846L15.0845 6.73338C15.2594 6.55846 15.5026 6.46154 15.7449 6.46154C15.9877 6.46154 16.2309 6.55846 16.4054 6.73338L17.7258 8.05385C17.9008 8.22877 17.9982 8.47154 17.9982 8.71431C17.9982 8.95708 17.9008 9.19985 17.7258 9.37477L14.8708 12.2298L17.7258 15.0849C17.9008 15.2594 17.9982 15.5022 17.9982 15.7449C17.9982 15.9877 17.9008 16.2305 17.7258 16.4054Z" fill="white"/>
</svg>
