<svg width="24" height="24" viewBox="0 0 24 24" fill="none" xmlns="http://www.w3.org/2000/svg">
<path d="M12 24C18.6274 24 24 18.6274 24 12C24 5.37258 18.6274 0 12 0C5.37258 0 0 5.37258 0 12C0 18.6274 5.37258 24 12 24Z" fill="#17A9E1"/>
<path fill-rule="evenodd" clip-rule="evenodd" d="M14.904 13.1403L18.1248 14.1139C17.9085 15.0171 17.5678 15.7716 17.1026 16.3774C16.6375 16.9832 16.0601 17.4402 15.3705 17.7485C14.6809 18.0568 13.8033 18.2109 12.7378 18.2109C11.4452 18.2109 10.3891 18.023 9.56971 17.6471C8.7503 17.2712 8.04312 16.61 7.44817 15.6635C6.85321 14.7169 6.55574 13.5054 6.55574 12.0288C6.55574 10.0601 7.07902 8.54703 8.1256 7.48963C9.17218 6.43224 10.6528 5.90355 12.5675 5.90355C14.0657 5.90355 15.2434 6.20643 16.1007 6.8122C16.9579 7.41797 17.5948 8.34825 18.0113 9.60306L14.7661 10.3251C14.6525 9.96274 14.5335 9.69772 14.4091 9.53005C14.2036 9.2488 13.9521 9.03245 13.6546 8.88101C13.3571 8.72957 13.0245 8.65385 12.6567 8.65385C11.8238 8.65385 11.1855 8.98918 10.742 9.65986C10.4067 10.1575 10.239 10.939 10.239 12.0045C10.239 13.3242 10.4392 14.2288 10.8394 14.7183C11.2396 15.2078 11.8021 15.4525 12.5269 15.4525C13.23 15.4525 13.7614 15.2551 14.1211 14.8603C14.4808 14.4654 14.7417 13.8921 14.904 13.1403Z" fill="white"/>
</svg>
