<svg width="24" height="24" viewBox="0 0 24 24" fill="none" xmlns="http://www.w3.org/2000/svg">
<path d="M12 24C18.6274 24 24 18.6274 24 12C24 5.37258 18.6274 0 12 0C5.37258 0 0 5.37258 0 12C0 18.6274 5.37258 24 12 24Z" fill="#F4925D"/>
<path fill-rule="evenodd" clip-rule="evenodd" d="M7.43194 6.10637H13.541C14.8716 6.10637 15.8681 6.42277 16.5306 7.05559C17.1932 7.68841 17.5245 8.58894 17.5245 9.75721C17.5245 10.9579 17.1635 11.8963 16.4414 12.5724C15.7193 13.2485 14.6173 13.5865 13.1354 13.5865H11.1233V18H7.43194V6.10637ZM11.1233 11.177H12.0239C12.7324 11.177 13.23 11.0539 13.5167 10.8078C13.8033 10.5617 13.9467 10.2467 13.9467 9.86268C13.9467 9.48948 13.8223 9.17308 13.5735 8.91346C13.3247 8.65384 12.8568 8.52404 12.1699 8.52404H11.1233V11.177Z" fill="white"/>
</svg>
