<svg width="24" height="24" viewBox="0 0 24 24" fill="none" xmlns="http://www.w3.org/2000/svg">
<path d="M12 24C18.6274 24 24 18.6274 24 12C24 5.37258 18.6274 0 12 0C5.37258 0 0 5.37258 0 12C0 18.6274 5.37258 24 12 24Z" fill="#AB55A0"/>
<path fill-rule="evenodd" clip-rule="evenodd" d="M14.2671 6.10637H17.9342V13.1971C17.9342 13.9002 17.8247 14.5641 17.6056 15.1889C17.3866 15.8136 17.0431 16.3598 16.5753 16.8277C16.1074 17.2955 15.6166 17.6241 15.1028 17.8134C14.3888 18.0784 13.5316 18.2109 12.5309 18.2109C11.9522 18.2109 11.3208 18.1704 10.6366 18.0892C9.95237 18.0081 9.38041 17.8472 8.92067 17.6065C8.46094 17.3658 8.04042 17.0237 7.6591 16.5802C7.27779 16.1367 7.01683 15.6797 6.8762 15.2091C6.64904 14.4519 6.53546 13.7813 6.53546 13.1971V6.10637H10.2025V13.3675C10.2025 14.0165 10.3824 14.5236 10.742 14.8887C11.1017 15.2538 11.6007 15.4363 12.2389 15.4363C12.8717 15.4363 13.3679 15.2565 13.7276 14.8968C14.0873 14.5371 14.2671 14.0273 14.2671 13.3675V6.10637Z" fill="white"/>
</svg>
