<svg width="24" height="24" viewBox="0 0 24 24" fill="none" xmlns="http://www.w3.org/2000/svg">
<path fill-rule="evenodd" clip-rule="evenodd" d="M8.66667 2H5.83333V3.99936L5.73974 4.00039C3.58763 3.91138 2.97586 5.0345 3.00072 6.8527C3.03051 9.05844 3.0254 11.2647 3.0203 13.471C3.01669 15.0318 3.01308 16.5926 3.02182 18.1533C3.03463 20.4795 3.49759 20.9653 5.7533 20.9807C9.57873 21.0064 13.4042 21.0064 17.2292 20.9807C19.4586 20.9657 19.949 20.4478 19.9622 18.1371C19.9698 16.8088 19.963 15.4801 19.9563 14.1516V14.1511V14.1506V14.1502V14.1501V14.15V14.15C19.9446 11.8371 19.9328 9.52437 19.9965 7.21362C20.0519 5.18687 19.4665 3.90308 17.2789 3.90007L17.1667 3.9V2H14.3333V3.91621C12.5464 3.93052 10.3782 3.95178 8.66667 3.96936V2ZM4.88889 19.1H18.1111V8.64998H4.88889V19.1ZM11.1184 14.7096H6.77203V10.3934H11.1184V14.7096Z" fill="currentColor"/>
</svg>
