<svg width="24" height="24" viewBox="0 0 24 24" fill="none" xmlns="http://www.w3.org/2000/svg">
<path fill-rule="evenodd" clip-rule="evenodd" d="M12 21C16.9706 21 21 16.9706 21 12C21 7.02944 16.9706 3 12 3C7.02944 3 3 7.02944 3 12C3 16.9706 7.02944 21 12 21ZM16.7531 12.5648L16.7305 11.2701C16.7275 11.0985 16.6533 10.933 16.5322 10.8161C16.4111 10.6991 16.2431 10.6307 16.0718 10.634L13.2723 10.6828L13.2233 7.88322C13.2203 7.7117 13.1462 7.54617 13.0251 7.42922C12.9039 7.31228 12.7359 7.24391 12.5644 7.2469L11.2696 7.26947C11.0983 7.27223 10.9328 7.34687 10.8159 7.46797C10.6992 7.58884 10.6303 7.75686 10.6333 7.92838L10.6825 10.7277L7.88294 10.7765C7.71142 10.7795 7.54613 10.8539 7.4294 10.9748C7.31224 11.0961 7.24364 11.2639 7.24686 11.4352L7.26927 12.7302C7.27226 12.9017 7.34668 13.067 7.46778 13.1839C7.58889 13.3009 7.75668 13.3695 7.9282 13.3665L10.7275 13.3179L10.7767 16.1172C10.7794 16.2885 10.8538 16.4538 10.9749 16.5708C11.0961 16.6877 11.2638 16.7563 11.4354 16.7533L12.7304 16.7305C12.9017 16.7278 13.067 16.6534 13.1841 16.532C13.3008 16.4112 13.3694 16.2434 13.3664 16.0719L13.3175 13.2723L16.1168 13.2237C16.2884 13.2207 16.4539 13.1461 16.5706 13.0252C16.6875 12.9041 16.7564 12.7361 16.7531 12.5648Z" fill="currentColor"/>
</svg>
