<svg width="24" height="24" viewBox="0 0 24 24" fill="none" xmlns="http://www.w3.org/2000/svg">
<path fill-rule="evenodd" clip-rule="evenodd" d="M3 12C3 16.9679 7.03115 21 12 21C16.9698 21 21 16.9679 21 12C21 7.03213 16.9698 3 12 3C7.03115 3 3 7.03213 3 12ZM12.2359 5.99967C10.325 5.99967 8.89373 6.82091 7.88693 8.49594C7.78131 8.6598 7.82869 8.87103 7.9807 8.98849L9.52841 10.1601C9.58664 10.2065 9.66857 10.2312 9.74951 10.2312C9.85611 10.2312 9.97258 10.1828 10.0427 10.09C10.5944 9.38726 10.8293 9.17701 11.0514 9.01218C11.2498 8.87103 11.6368 8.73086 12.0582 8.73086C12.8094 8.73086 13.5003 9.21057 13.5003 9.72582C13.5003 10.3368 13.1835 10.6408 12.4689 10.9685C11.6368 11.3436 10.4997 12.3168 10.4997 13.453V13.8754C10.4997 14.0857 10.6645 14.2505 10.8748 14.2505H13.1252C13.3355 14.2505 13.5003 14.0857 13.5003 13.8754C13.5003 13.6059 13.8409 13.0315 14.3907 12.7146L14.4072 12.7053C15.297 12.2018 16.5 11.5211 16.5 9.75049C16.5 7.60562 14.2505 5.99967 12.2359 5.99967ZM13.5003 15.3748C13.5003 15.1645 13.3355 14.9997 13.1253 14.9997H10.8748C10.6645 14.9997 10.4997 15.1645 10.4997 15.3748V17.6253C10.4997 17.8355 10.6645 18.0003 10.8748 18.0003H13.1253C13.3355 18.0003 13.5003 17.8355 13.5003 17.6253V15.3748Z" fill="currentColor"/>
</svg>
