<svg width="24" height="24" viewBox="0 0 24 24" fill="none" xmlns="http://www.w3.org/2000/svg">
<path fill-rule="evenodd" clip-rule="evenodd" d="M16.2541 11.6732C16.2541 11.2388 15.9666 10.8548 15.5051 10.8548H11.0017L12.8757 8.97986C13.0298 8.82662 13.1191 8.61479 13.1191 8.39756C13.1191 8.18032 13.0298 7.96939 12.8757 7.81525L12.3962 7.34202C12.2429 7.18878 12.0374 7.09864 11.8202 7.09864C11.6029 7.09864 11.3911 7.18878 11.2388 7.34202L7.07251 11.5011C6.92558 11.6543 6.83634 11.8652 6.83634 12.0825C6.83634 12.3006 6.92558 12.5115 7.07251 12.6585L11.2388 16.8301C11.3911 16.9771 11.6029 17.0663 11.8202 17.0663C12.0374 17.0663 12.2492 16.9771 12.3962 16.8301L12.8757 16.3434C13.0298 16.1964 13.1191 15.9855 13.1191 15.7674C13.1191 15.5501 13.0298 15.3392 12.8757 15.1923L11.0017 13.3111H15.5051C15.9666 13.3111 16.2541 12.9271 16.2541 12.4926V11.6732ZM3 12.0005C3 7.03015 7.03015 3 11.9995 3C16.9708 3 21 7.03015 21 12.0005C21 16.9708 16.9708 21 11.9995 21C7.03015 21 3 16.9708 3 12.0005Z" fill="currentColor"/>
</svg>
