<svg width="24" height="24" viewBox="0 0 24 24" fill="none" xmlns="http://www.w3.org/2000/svg">
<path fill-rule="evenodd" clip-rule="evenodd" d="M19.143 13.1816C18.3504 13.1816 17.714 13.7882 17.714 14.5456C17.714 15.3013 18.3504 15.9088 19.143 15.9088C19.9355 15.9088 20.572 15.3013 20.572 14.5456C20.572 13.7882 19.9355 13.1816 19.143 13.1816ZM17.0005 8.40921C16.2079 8.40921 15.5715 9.01584 15.5715 9.77237C15.5715 10.5289 16.2079 11.1364 17.0005 11.1364C17.7921 11.1364 18.4285 10.5289 18.4285 9.77237C18.4285 9.01584 17.7921 8.40921 17.0005 8.40921ZM12 6.36316C11.2075 6.36316 10.572 6.97066 10.572 7.72719C10.572 8.48372 11.2075 9.09035 12 9.09035C12.7925 9.09035 13.428 8.48372 13.428 7.72719C13.428 6.97066 12.7925 6.36316 12 6.36316ZM14.3326 10.827C14.4217 10.4649 14.1985 10.0923 13.8193 9.99591C13.44 9.90036 13.0488 10.1239 12.9487 10.4859L11.8218 14.5553C10.9393 14.6201 10.1697 15.2057 9.92451 16.0683C9.62329 17.1659 10.3148 18.2844 11.4536 18.572C12.6024 18.8604 13.7743 18.1994 14.0755 17.1124C14.3106 16.2498 13.9304 15.3758 13.2058 14.8963L14.3326 10.827ZM6.99954 8.40921C6.20792 8.40921 5.57241 9.01584 5.57241 9.77237C5.57241 10.5289 6.20792 11.1364 6.99954 11.1364C7.793 11.1364 8.42851 10.5289 8.42851 9.77237C8.42851 9.01584 7.793 8.40921 6.99954 8.40921ZM4.85701 13.1816C4.06447 13.1816 3.42896 13.7882 3.42896 14.5456C3.42896 15.3013 4.06447 15.9088 4.85701 15.9088C5.65047 15.9088 6.28598 15.3013 6.28598 14.5456C6.28598 13.7882 5.65047 13.1816 4.85701 13.1816ZM20.4259 19.6905C20.2928 19.8825 20.0696 20 19.8235 20H4.17651C3.93131 20 3.70723 19.8825 3.57407 19.6905C2.54734 18.1564 2 16.3778 2 14.5456C2 9.28233 6.4871 5 12 5C17.5138 5 22 9.28233 22 14.5456C22 16.3778 21.4536 18.1459 20.4259 19.6905Z" fill="currentColor"/>
</svg>
