<svg width="24" height="24" viewBox="0 0 24 24" fill="none" xmlns="http://www.w3.org/2000/svg">
<path fill-rule="evenodd" clip-rule="evenodd" d="M9.17697 7.72222H16.4827C16.6874 7.72222 16.9155 7.54999 16.9876 7.32855L17.2397 6.54182C17.3124 6.32038 17.1922 6.14815 16.9759 6.14815H9.66953C9.46547 6.14815 9.23736 6.32038 9.16465 6.54182L8.91251 7.32855C8.84038 7.54999 8.96059 7.72222 9.17697 7.72222ZM8.17953 10.8704H15.4859C15.6899 10.8704 15.9186 10.6981 15.9907 10.4767L16.2429 9.68996C16.315 9.46853 16.1948 9.2963 15.9784 9.2963H8.67268C8.46803 9.2963 8.23992 9.46853 8.1678 9.68996L7.91566 10.4767C7.84353 10.6981 7.96374 10.8704 8.17953 10.8704ZM21.9144 8.89063L18.6101 20.0322C18.3099 21.0775 17.252 21.8889 16.2188 21.8889H5.1274C3.90186 21.8889 2.59188 20.8933 2.14741 19.6139C1.95507 19.0606 1.95507 18.5199 2.12336 18.0524C2.14741 17.8064 2.19549 17.5603 2.20722 17.2651C2.21953 17.0682 2.11164 16.9086 2.13568 16.761C2.18376 16.4657 2.43591 16.2569 2.62824 15.9244C2.98828 15.3099 3.39699 14.3138 3.52951 13.6741C3.58932 13.4406 3.46911 13.17 3.52951 12.9611C3.58932 12.7271 3.81742 12.5555 3.93763 12.334C4.26249 11.7681 4.68293 10.6735 4.74274 10.0956C4.76678 9.83759 4.64657 9.55434 4.7187 9.35811C4.80313 9.07486 5.06759 8.95184 5.24761 8.70639C5.53611 8.30012 6.01695 7.13232 6.08849 6.48001C6.11253 6.27117 5.99291 6.06173 6.02868 5.84089C6.07676 5.60685 6.36526 5.36081 6.55759 5.07816C7.06247 4.31603 7.15863 2.63094 8.6844 3.07381L8.67268 3.11042C8.87674 3.06121 9.0808 3 9.28545 3H18.4295C18.9948 3 19.4997 3.25804 19.7999 3.68832C20.1118 4.1312 20.184 4.7091 20.0157 5.287L16.7237 16.4291C16.1584 18.3231 15.8465 18.7407 14.3201 18.7407H3.87782C3.72184 18.7407 3.52951 18.7779 3.42103 18.9256C3.32545 19.0732 3.31314 19.1836 3.4093 19.4543C3.64972 20.1672 4.47886 20.3148 5.13972 20.3148H16.2306C16.6756 20.3148 17.1922 20.0568 17.3242 19.6139L20.9293 7.47618C21.0014 7.24274 21.0014 6.9967 20.9897 6.77526C21.2658 6.88568 21.518 7.05851 21.6986 7.30395C21.9988 7.74683 22.0827 8.32473 21.9144 8.89063Z" fill="currentColor"/>
</svg>
