<svg width="24" height="24" viewBox="0 0 24 24" fill="none" xmlns="http://www.w3.org/2000/svg">
<rect width="24" height="24" fill="white"/>
<path fill-rule="evenodd" clip-rule="evenodd" d="M20.7537 9.74388L20.2651 9.22134C19.9754 8.91205 19.5309 8.89187 19.2025 9.13009C19.171 9.14546 19.1368 9.1541 19.1125 9.18196C18.9424 9.36158 18.65 9.34621 18.4619 9.14642C18.3594 9.03596 18.3567 8.90724 18.3882 8.77277C18.6203 8.32227 18.6293 7.73058 18.3711 7.31466C18.075 6.84207 17.7367 6.40214 17.3624 6.0016C16.989 5.60297 16.5742 5.24085 16.1351 4.92579C15.9767 4.81533 15.7905 4.75385 15.5988 4.73176C14.4939 3.81636 12.3245 2.67524 10.0733 3.08635C9.49559 3.19969 9.36692 3.76833 9.96888 3.87207C11.6056 4.17945 12.7951 5.50692 13.1865 6.84976C13.1181 7.11295 13.1073 7.38862 13.1523 7.64701C13.1478 8.02738 13.0848 8.74683 12.6736 9.18772C12.4784 9.39712 12.2921 9.59403 12.1293 9.76693C11.7468 9.5316 11.2781 9.47204 11.0666 9.76405C9.75023 11.5814 6.9528 15.1287 3.08373 17.2995C2.68513 17.5233 3.81796 19.2936 4.20846 19.7114C4.59987 20.1283 6.25727 21.3367 6.46782 20.9102C8.49863 16.7818 12.0339 14.0183 13.7354 12.614C13.99 12.4046 13.9603 11.9579 13.7777 11.567C13.945 11.3893 14.1376 11.1837 14.34 10.9676C14.3418 10.9666 14.3436 10.9647 14.3445 10.9628C14.699 10.5882 15.2479 10.4864 15.6204 10.4633C15.6294 10.4652 15.6384 10.4672 15.6483 10.471C15.9965 10.5853 16.4032 10.5382 16.7541 10.3874C16.9161 10.3702 17.079 10.3884 17.1878 10.5046C17.375 10.7054 17.3912 11.0185 17.2211 11.1991C17.1959 11.225 17.1869 11.2644 17.1734 11.298C16.9512 11.6477 16.9692 12.1212 17.258 12.4296L17.7484 12.9531C18.075 13.3017 18.6122 13.3017 18.9388 12.9531L20.7537 11.0147C21.0821 10.6641 21.0821 10.0926 20.7537 9.74388Z" fill="currentColor"/>
</svg>
