<svg width="24" height="24" viewBox="0 0 24 24" fill="none" xmlns="http://www.w3.org/2000/svg">
<path fill-rule="evenodd" clip-rule="evenodd" d="M18.7687 17.4181H14.4606C14.4606 18.6495 13.3564 19.6546 12 19.6546C10.6436 19.6546 9.53838 18.6495 9.53838 17.4181H5.23133C4.5578 17.4181 4 16.9113 4 16.3003C6.50958 14.3688 7.69295 11.4086 7.69295 8.47301C7.69295 6.50743 9.05878 5.38965 11.1534 5.1623C11.1054 5.06568 11.0762 4.95201 11.0762 4.83928C11.0762 4.37607 11.4912 4 12 4C12.5088 4 12.9238 4.37607 12.9238 4.83928C12.9238 4.95201 12.8935 5.06568 12.8456 5.1623C14.9412 5.38965 16.3071 6.50743 16.3071 8.47301C16.3071 11.4086 17.4894 14.3688 20 16.3003C20 16.9113 19.4422 17.4181 18.7687 17.4181Z" fill="currentColor"/>
</svg>
