<svg width="24" height="24" viewBox="0 0 24 24" fill="none" xmlns="http://www.w3.org/2000/svg">
<path fill-rule="evenodd" clip-rule="evenodd" d="M13.2812 9.99979C14.5139 10.0245 15.9646 7.8991 15.9991 6.13743C16.025 4.80102 15.4839 4.07945 14.3931 4.00259C13.2529 3.91976 12.0124 5.83599 12.0006 7.82566C11.9951 8.81623 11.9998 9.97331 13.2812 9.99979ZM15.8144 15.196C14.9186 14.3137 14.0271 13.3722 13.3557 12.3036C12.4759 10.9029 11.2315 10.6686 10.1475 11.4204C8.75066 12.3892 7.50835 13.6132 6.27341 14.8298C6.0456 15.0542 5.81804 15.2784 5.58981 15.5007C5.31504 15.7685 4.77642 16.656 5.10077 17.3314C5.15692 17.4485 5.21838 17.5922 5.28625 17.7509L5.28627 17.7509L5.28629 17.751C5.61041 18.5087 6.08041 19.6074 6.8141 19.7784C6.96115 19.8823 7.19811 19.8514 7.47625 19.7552C8.00646 19.6359 8.60811 19.3184 9.11228 18.9656C9.37851 18.8465 9.60614 18.6131 9.82359 18.3901L9.82388 18.3898C9.85067 18.3624 9.8773 18.3351 9.90382 18.3082C10.5542 17.6284 11.9129 17.346 12.8809 18.5854C14.1792 20.2488 15.0732 20.3852 16.0917 19.3089C17.4059 17.9168 17.2773 16.6371 15.8144 15.196ZM9.79433 9.79447C9.31372 10.1741 8.72988 10.0382 8.24762 9.3002C7.64313 8.37705 7.10554 7.24753 7.00644 6.16217C6.94286 5.45728 7.35163 4.27171 8.15513 4.04241C8.93366 3.81835 9.64538 4.52826 10.2089 5.09036L10.2609 5.1422C10.6854 5.56259 10.8456 6.26578 10.9488 6.92396C11.052 7.58468 11.0173 8.75157 10.6755 9.09468C10.3699 9.40126 10.0768 9.64415 9.79433 9.79447ZM20.8464 9.9144C20.5653 9.33806 19.8797 9.04861 19.2234 9.00323C17.6858 8.89704 15.6938 11.437 16.0396 12.9656C16.1284 13.3647 16.6381 13.8639 17.0322 13.9513C17.1046 13.9676 17.1805 13.9778 17.2564 13.9847C18.1274 14.0866 19.0397 13.6738 19.7288 12.9271C20.6817 12.0681 21.3043 10.8521 20.8464 9.9144ZM6.99138 11.9927C6.94596 12.3906 6.77376 12.6944 6.16061 12.8964C5.34026 13.167 4.23036 12.8783 3.36174 12.3673C2.51489 11.9625 2.00489 11.3655 2.00015 10.7128C1.99069 9.77661 2.41459 9.04093 3.72414 9.00099C5.24564 8.9535 7.14372 10.6314 6.99138 11.9927Z" fill="currentColor"/>
</svg>
