<svg width="24" height="24" viewBox="0 0 24 24" fill="none" xmlns="http://www.w3.org/2000/svg">
<path fill-rule="evenodd" clip-rule="evenodd" d="M12 12C9.59063 12 7.63651 9.98418 7.63651 7.5C7.63651 5.01582 9.59063 3 12 3C14.4094 3 16.3635 5.01582 16.3635 7.5C16.3635 9.98418 14.4094 12 12 12ZM16.9657 21H7.03431C5.22714 21 4 19.8631 4 17.9651C4 15.3162 4.6022 11.2497 7.93207 11.2497C8.28419 11.2497 9.77251 12.879 12 12.879C14.2275 12.879 15.7158 11.2497 16.0679 11.2497C19.3978 11.2497 20 15.3162 20 17.9651C20 19.8631 18.7729 21 16.9657 21Z" fill="currentColor"/>
</svg>
