<svg width="24" height="24" viewBox="0 0 24 24" fill="none" xmlns="http://www.w3.org/2000/svg">
<path fill-rule="evenodd" clip-rule="evenodd" d="M15.0001 12.8077C15.0001 14.4319 13.6561 15.75 12 15.75C10.3439 15.75 8.99995 14.4319 8.99995 12.8077C8.99995 11.1834 10.3439 9.86531 12 9.86531C13.6561 9.86531 15.0001 11.1834 15.0001 12.8077ZM16.6668 12.8077C16.6668 10.2841 14.5731 8.23062 12 8.23062C9.42744 8.23062 7.3332 10.2841 7.3332 12.8077C7.3332 15.3312 9.42744 17.3847 12 17.3847C14.5731 17.3847 16.6668 15.3312 16.6668 12.8077ZM22 8.23062V17.3847C22 18.825 20.8024 20 19.3334 20H4.6666C3.19809 20 2 18.825 2 17.3847V8.23062C2 6.79035 3.19809 5.61531 4.6666 5.61531H7.00025L7.53144 4.22589C7.79169 3.55188 8.60398 3 9.3334 3H14.6666C15.396 3 16.2083 3.55188 16.4691 4.22589L17.0003 5.61531H19.3334C20.8024 5.61531 22 6.79035 22 8.23062Z" fill="currentColor"/>
</svg>
