<svg width="24" height="24" viewBox="0 0 24 24" fill="none" xmlns="http://www.w3.org/2000/svg">
<path fill-rule="evenodd" clip-rule="evenodd" d="M15.5 9.31417V6H12.6096C12.2743 6 12 5.775 12 5.5C12 5.225 12.2743 5 12.6096 5H15.5V1.68583C15.5 1.30862 15.725 1 16 1C16.275 1 16.5 1.30862 16.5 1.68583V5H19.3904C19.7257 5 20 5.225 20 5.5C20 5.775 19.7257 6 19.3904 6H16.5V9.31417C16.5 9.69138 16.275 10 16 10C15.725 10 15.5 9.69138 15.5 9.31417ZM19.9981 8.67565L20 16.3012H19.9981L19.9962 19.3351C19.9725 20.8694 18.8143 21.9991 17.2696 22H5.72875C4.18314 21.9991 3.02489 20.8694 3.00121 19.3351L3.00027 16.3012C2.99932 16.3012 3.00121 7.66529 3.00121 7.66529C3.02489 6.13097 4.18314 5.00042 5.72875 5.00042C7.09251 4.99948 10.9745 5.00042 10.9745 5.00042V6.32158H5.80167C4.88586 6.32158 4.32899 6.87465 4.32804 7.78172V19.2187C4.32899 20.1258 4.88586 20.6788 5.80167 20.6788H17.1967C18.1116 20.6788 18.6694 20.1258 18.6694 19.2187V8.67565H19.9981ZM11.4881 13.2134L7.88805 11.3785C8.6167 10.1406 9.96193 9.31165 11.5 9.31165C12.9143 9.31165 14.1654 10.0129 14.9243 11.0868L11.4881 13.2134ZM11.5 8.81165C9.76683 8.81165 8.25325 9.75215 7.44185 11.1511L7.43617 11.1482L7.32742 11.3605L7.44185 11.1511L7.32229 11.3705L7.31731 11.3803L7.20849 11.5934L7.21426 11.5963C6.95503 12.178 6.81165 12.8226 6.81165 13.5C6.81165 15.5561 8.13538 17.3038 9.97727 17.9352L9.97547 17.9415L10.2056 18.007L10.2162 18.01L10.4564 18.0781L10.4582 18.0718C10.7932 18.1479 11.1421 18.1884 11.5 18.1884C14.089 18.1884 16.1884 16.089 16.1884 13.5C16.1884 12.6845 15.9799 11.9172 15.6136 11.2482L15.6195 11.2445L15.49 11.0358L15.4877 11.0321L15.4875 11.0319L15.3561 10.8196L15.3502 10.8232C14.5033 9.60828 13.0946 8.81165 11.5 8.81165ZM11.5 17.6884C11.1892 17.6884 10.8864 17.6543 10.5954 17.5902L11.7139 13.6616L15.1877 11.5118C15.507 12.1037 15.6884 12.7804 15.6884 13.5C15.6884 15.8129 13.8129 17.6884 11.5 17.6884Z" fill="currentColor"/>
</svg>
