<svg width="24" height="24" viewBox="0 0 24 24" fill="none" xmlns="http://www.w3.org/2000/svg">
<path fill-rule="evenodd" clip-rule="evenodd" d="M10.6151 5.76976C7.94438 5.76976 5.76975 7.94326 5.76975 10.6151C5.76975 13.287 7.94438 15.4605 10.6151 15.4605C13.2881 15.4605 15.4616 13.287 15.4616 10.6151C15.4616 7.94326 13.2881 5.76976 10.6151 5.76976ZM19.6151 21C19.2472 21 18.8895 20.847 18.6409 20.5871L14.9318 16.8881C13.665 17.7645 12.1519 18.2291 10.6151 18.2291C6.40762 18.2291 3 14.8237 3 10.6151C3 6.4065 6.40762 3 10.6151 3C14.8237 3 18.2303 6.4065 18.2303 10.6151C18.2303 12.1508 17.7645 13.665 16.8881 14.9306L20.5995 18.6409C20.847 18.8895 21 19.2461 21 19.6151C21 20.3711 20.3722 21 19.6151 21Z" fill="currentColor"/>
</svg>
