<svg width="24" height="24" viewBox="0 0 24 24" fill="none" xmlns="http://www.w3.org/2000/svg">
<path fill-rule="evenodd" clip-rule="evenodd" d="M12 3.84601H8.42401C8.34901 3.84601 8.27701 3.84601 8.21201 3.85001C7.76501 3.88501 7.37401 4.26101 7.31901 4.70401C7.26501 5.14701 7.56301 5.60201 7.99901 5.73801C8.06901 5.76001 8.15001 5.77701 8.23401 5.79601C8.28001 5.80801 8.32501 5.81701 8.37001 5.82701L8.70701 5.90801V12.173L8.30301 12.213C7.84801 12.257 7.51201 12.374 7.25101 12.58C6.38301 13.266 5.93901 14.142 5.89801 15.259C5.89101 15.43 5.99001 15.543 6.16701 15.565C6.21401 15.573 6.27701 15.569 6.34401 15.569L10.966 15.568L11.047 15.897C11.056 15.932 11.064 15.964 11.073 15.995C11.092 16.065 11.111 16.139 11.124 16.219C11.246 16.997 11.368 17.773 11.49 18.551L11.805 20.558C11.838 20.765 11.868 20.961 11.906 21.155H12H12.092C12.132 20.961 12.162 20.765 12.194 20.558L12.51 18.551C12.632 17.773 12.753 16.997 12.876 16.219C12.889 16.139 12.908 16.065 12.928 15.995C12.936 15.964 12.945 15.932 12.953 15.897L13.033 15.568L17.655 15.569C17.723 15.569 17.785 15.573 17.832 15.565C18.01 15.543 18.108 15.43 18.103 15.259C18.059 14.142 17.618 13.266 16.749 12.58C16.486 12.374 16.152 12.257 15.696 12.213L15.292 12.173V5.90801L15.63 5.82701C15.674 5.81701 15.719 5.80801 15.764 5.79601C15.85 5.77701 15.93 5.76001 16 5.73801C16.437 5.60201 16.735 5.14701 16.681 4.70401C16.625 4.26101 16.233 3.88501 15.786 3.85001C15.722 3.84601 15.649 3.84601 15.576 3.84601H12Z" fill="currentColor"/>
</svg>
