<svg width="24" height="24" viewBox="0 0 24 24" fill="none" xmlns="http://www.w3.org/2000/svg">
<path fill-rule="evenodd" clip-rule="evenodd" d="M20.747 9.51888C20.0565 11.4689 18.1805 12.8165 16.1081 12.8165C13.3988 12.8165 11.1934 10.6138 11.1934 7.90873C11.1934 5.20269 13.3988 3 16.1081 3C16.9087 3 17.9504 3.24078 18.619 3.68964C18.7292 3.76792 18.7946 3.86601 18.7946 3.99681C18.7946 4.11868 18.7173 4.23858 18.619 4.30397L15.4057 6.1549V8.60927L17.5228 9.78245C17.8839 9.57338 20.4296 7.97413 20.6488 7.97413C20.868 7.97413 21 8.13861 21 8.35759C21 8.71826 20.868 9.16812 20.747 9.51888ZM6.27976 17.0227C5.89583 17.0227 5.57837 17.3407 5.57837 17.7242C5.57837 18.1077 5.89583 18.4257 6.27976 18.4257C6.66369 18.4257 6.98214 18.1077 6.98214 17.7242C6.98214 17.3407 6.66369 17.0227 6.27976 17.0227ZM6.56548 20.5947C6.3125 20.8464 5.9504 21 5.57837 21C5.20536 21 4.84325 20.8464 4.57937 20.5947L3.41667 19.4106C3.15377 19.159 3 18.7973 3 18.4257C3 18.0522 3.15377 17.6915 3.41667 17.4279L10.8869 9.96773C11.4573 11.4035 12.6091 12.5529 14.0456 13.1236L6.56548 20.5947Z" fill="currentColor"/>
</svg>
