<svg width="171" height="24" viewBox="0 0 171 24" fill="none" xmlns="http://www.w3.org/2000/svg">
<path fill-rule="evenodd" clip-rule="evenodd" d="M75.2242 14.8819V4.0957H71.3654V18.0037H81.3834V14.8819H75.2242Z" fill="#F4915D"/>
<path fill-rule="evenodd" clip-rule="evenodd" d="M93.6727 4.0509L91.4399 9.31523L89.1995 4.0509H84.9818L89.4756 13.0091V18.0546H93.4063V13.0096L97.9096 4.0509H93.6727Z" fill="#F4915D"/>
<path fill-rule="evenodd" clip-rule="evenodd" d="M111.875 4.1032V11.4376L107.706 4.1032H103.975V18.0545H107.846V10.7175L112.024 18.0545H115.736V4.1032H111.875Z" fill="#F4915D"/>
<path fill-rule="evenodd" clip-rule="evenodd" d="M131.736 10.9934L135.654 4.04425H131.196L129.225 8.05315L127.254 4.04425H122.806L126.714 10.9934L122.703 18.0545H127.189L129.225 13.9568L131.261 18.0545H135.757L131.736 10.9934Z" fill="#F4915D"/>
<path fill-rule="evenodd" clip-rule="evenodd" d="M160.855 13.6427L160.854 13.7673C160.225 13.8324 159.656 14.1388 159.156 14.6851L158.243 13.5233C158.228 13.02 158.47 12.5781 158.983 12.1739L159.288 11.9339L159.348 12.2722L160.855 13.6427ZM162.57 12.2722L162.631 11.9339L162.935 12.1739C163.448 12.5781 163.69 13.02 163.676 13.5233L162.762 14.6851C162.262 14.1388 161.693 13.8324 161.064 13.7673L161.064 13.6427L162.57 12.2722ZM156.691 8.31166L156.731 8.53422C157.059 10.3554 157.881 11.2857 159.174 11.2997L159.266 11.811L158.867 11.9746C158.017 12.3226 157.435 13.0031 157.137 13.9973L157.113 14.0795L159.193 15.4785L159.261 15.4011C159.765 14.826 160.336 14.4765 160.959 14.3608C161.582 14.4765 162.153 14.826 162.658 15.4011L162.725 15.4785L164.806 14.0795L164.781 13.9973C164.484 13.0031 163.901 12.3226 163.052 11.9746L162.652 11.811L162.744 11.2997C164.037 11.2857 164.859 10.3554 165.187 8.53422L165.228 8.31166L161.484 10.0795L162.495 10.1448L161.697 12.0513H160.962H160.956H160.221L159.423 10.1448L160.434 10.0795L156.691 8.31166Z" fill="white"/>
<path fill-rule="evenodd" clip-rule="evenodd" d="M156.148 15.9336L156.164 15.4017L155.927 15.8783C155.302 17.1378 155.071 18.7524 155.242 20.6769L155.246 20.7133L155.269 20.7417C155.881 21.4678 156.691 22.0638 157.677 22.5135L158.158 22.7478L157.813 22.3317C156.624 20.9459 156.064 18.7931 156.148 15.9336Z" fill="white"/>
<path fill-rule="evenodd" clip-rule="evenodd" d="M165.755 15.4017L165.77 15.9336C165.855 18.7931 165.294 20.9459 164.105 22.3317L163.761 22.7479L164.242 22.5136C165.228 22.0639 166.037 21.4678 166.649 20.7417L166.673 20.7133L166.676 20.677C166.847 18.7524 166.616 17.1378 165.991 15.8784L165.755 15.4017Z" fill="white"/>
<path fill-rule="evenodd" clip-rule="evenodd" d="M164.44 15.385L164.821 14.8654L164.282 15.2183C163.597 15.6665 163.031 16.5138 162.6 17.7208H160.962H160.956H159.319C158.887 16.5138 158.322 15.6665 157.637 15.2183L157.097 14.8654L157.479 15.385C158.368 16.594 158.739 17.7211 158.582 18.7354L158.562 18.8817H160.956H160.962H163.357L163.336 18.7354C163.18 17.7211 163.551 16.594 164.44 15.385Z" fill="white"/>
<path fill-rule="evenodd" clip-rule="evenodd" d="M170.65 10.9149C169.538 11.645 168.416 11.7584 167.298 11.2517C168.277 8.74002 168.254 6.34602 167.231 4.13362C167.971 3.09358 167.792 1.72902 167.589 1.14355L167.217 0.0668526L167.364 1.19654C167.365 1.21172 167.541 2.63157 166.888 3.46365C166.673 3.08098 166.424 2.69945 166.148 2.32738L165.952 2.45226C166.193 2.89652 166.407 3.33476 166.587 3.75553C166.544 3.78675 166.499 3.81596 166.453 3.84289C166.069 4.06144 165.64 4.24189 165.225 4.41633C164.317 4.79785 163.459 5.17022 163.121 5.89059H160.962H160.956H158.797C158.46 5.17022 157.601 4.79785 156.693 4.41633C156.278 4.24189 155.849 4.06144 155.466 3.84289C155.419 3.81596 155.374 3.78675 155.332 3.75553C155.512 3.33476 155.725 2.89652 155.966 2.45226L155.77 2.32738C155.494 2.69945 155.246 3.08098 155.031 3.46365C154.377 2.63157 154.553 1.21172 154.555 1.19654L154.701 0.0668526L154.329 1.14355C154.127 1.72902 153.948 3.09358 154.688 4.13362C153.664 6.34602 153.642 8.74002 154.62 11.2517C153.502 11.7584 152.381 11.645 151.268 10.9149L151.044 10.768L151.089 11.0318C151.785 15.1338 153.008 18.1868 154.724 20.1054L154.976 20.3864L154.927 20.0123C154.613 17.6263 154.782 15.804 155.429 14.5961L155.885 13.7469L155.24 14.4629C154.541 15.2403 154.104 16.0254 153.939 16.8025C153.414 15.6296 153.065 14.5154 152.897 13.4839C154.534 13.2419 155.754 12.3571 156.34 10.9822C157.081 9.24443 156.679 7.00309 155.291 5.13212L155.097 5.26101C156.197 7.11566 156.32 8.85144 155.465 10.4234C154.371 8.80389 154.225 6.82178 155.031 4.52632C155.353 4.82793 155.762 5.05965 156.248 5.21633C156.994 5.45607 157.645 6.85071 157.651 6.86475L157.697 6.98047L157.798 6.9249C158.147 6.79429 159.335 6.71007 160.825 6.71007L160.956 6.71036H160.959H160.962L161.093 6.71007C162.583 6.71007 163.771 6.79429 164.12 6.9249L164.222 6.98047L164.267 6.86475C164.273 6.85071 164.924 5.45607 165.67 5.21633C166.157 5.05965 166.565 4.82793 166.887 4.52632C167.693 6.82178 167.547 8.80389 166.454 10.4234C165.598 8.85144 165.722 7.11566 166.821 5.26101L166.628 5.13212C165.239 7.00309 164.837 9.24443 165.578 10.9822C166.164 12.3571 167.384 13.2419 169.021 13.4839C168.854 14.5154 168.504 15.6296 167.979 16.8025C167.814 16.0254 167.378 15.2403 166.679 14.4629L166.034 13.7469L166.489 14.5961C167.137 15.804 167.306 17.6263 166.992 20.0123L166.943 20.3864L167.194 20.1054C168.911 18.1868 170.134 15.1338 170.83 11.0318L170.874 10.768L170.65 10.9149Z" fill="white"/>
<path fill-rule="evenodd" clip-rule="evenodd" d="M6.09941 12.3714L7.22366 9.25044L8.38027 12.3714H6.09941ZM9.05424 4.10211H5.39106L0.00012207 17.9531H4.06374L4.96055 15.4898H9.52084L10.4285 17.9531H14.4853L9.05424 4.10211Z" fill="white"/>
<path fill-rule="evenodd" clip-rule="evenodd" d="M60.4054 4.10543V13.0312C60.4054 13.7542 60.2651 14.2709 59.989 14.5671C59.714 14.8615 59.3055 15.0045 58.7396 15.0045C57.6282 15.0045 57.0957 14.4207 57.0645 13.1759V4.10543H53.212V13.1166C53.2315 14.6516 53.7425 15.8824 54.7312 16.774C55.7111 17.6585 57.0599 18.1068 58.7396 18.1068C59.8452 18.1068 60.8211 17.9075 61.6391 17.5139C62.4732 17.1132 63.1234 16.5203 63.5717 15.7506C64.0154 14.9887 64.2402 14.0799 64.2402 13.049V4.10543H60.4054Z" fill="white"/>
<path fill-rule="evenodd" clip-rule="evenodd" d="M143.419 22.7557H143.706V8.7738e-05H143.419V22.7557Z" fill="white"/>
<path fill-rule="evenodd" clip-rule="evenodd" d="M35.297 11.0555C35.297 16.1308 38.3149 18.2423 41.771 18.2423C44.7728 18.2423 47.068 16.2476 47.3429 13.3272H43.552C43.4704 14.1512 42.8084 15.2766 41.4883 15.1638C39.9183 15.0294 39.3506 13.3277 39.3904 11.0555C39.3904 8.56094 40.1489 6.96294 41.49 6.91281C42.7234 6.8667 43.4145 7.70652 43.552 8.78379H47.3429C46.9998 5.7519 44.6694 3.86861 41.4126 3.86861C37.7452 3.86861 35.297 6.7378 35.297 11.0555Z" fill="white"/>
<path fill-rule="evenodd" clip-rule="evenodd" d="M18.3006 11.0555C18.3006 16.1308 21.3187 18.2423 24.7746 18.2423C27.7764 18.2423 30.0715 16.2476 30.3465 13.3272H26.5556C26.474 14.1512 25.812 15.2766 24.4918 15.1638C22.9219 15.0294 22.3542 13.3277 22.394 11.0555C22.394 8.56094 23.1525 6.96294 24.4936 6.91281C25.7269 6.8667 26.4181 7.70652 26.5556 8.78379H30.3465C30.0037 5.7519 27.673 3.86861 24.4162 3.86861C20.7487 3.86861 18.3006 6.7378 18.3006 11.0555Z" fill="white"/>
</svg>
